# xmcd CD database file
#
# Track frame offsets:
#	150
#	13130
#	37392
#	53307
#	72992
#	87637
#	97947
#	121265
#	140572
#	157495
#	172627
#	192352
#
# Disc length: 2844 seconds
#
# Revision: 0
# Processed by: cddbd v1.5.2PL0 Copyright (c) Steve Scherf et al.
# Submitted via: CDex 1.70beta2
#
DISCID=a50b1a0c
DTITLE=Larry Howard - Into the Light
DYEAR=1989
DGENRE=Blues
TTITLE0=Why I Sing the Blues
TTITLE1=A New Heart
TTITLE2=One Day at a Time
TTITLE3=I Need to Know for Sure
TTITLE4=Livin' Example
TTITLE5=Trouble No More
TTITLE6=Into the Light
TTITLE7=Overcomer
TTITLE8=Holy Ground
TTITLE9=Guess Who
TTITLE10=Find Out for Yourself 
TTITLE11=Jesus Is Here
EXTD=YEAR: 1989
EXTT0=
EXTT1=
EXTT2=
EXTT3=
EXTT4=
EXTT5=
EXTT6=
EXTT7=
EXTT8=
EXTT9=
EXTT10=
EXTT11=
PLAYORDER=
